<svg id="visual" viewBox="0 0 900 100" width="900" height="100" xmlns="http://www.w3.org/2000/svg" xmlns:xlink="http://www.w3.org/1999/xlink" version="1.1"><rect x="0" y="0" width="900" height="100" fill="#181247"></rect><path d="M0 65L15 61.7C30 58.3 60 51.7 90 47.5C120 43.3 150 41.7 180 42C210 42.3 240 44.7 270 49.8C300 55 330 63 360 63.7C390 64.3 420 57.7 450 54.3C480 51 510 51 540 51.2C570 51.3 600 51.7 630 54.8C660 58 690 64 720 64.8C750 65.7 780 61.3 810 55.7C840 50 870 43 885 39.5L900 36L900 101L885 101C870 101 840 101 810 101C780 101 750 101 720 101C690 101 660 101 630 101C600 101 570 101 540 101C510 101 480 101 450 101C420 101 390 101 360 101C330 101 300 101 270 101C240 101 210 101 180 101C150 101 120 101 90 101C60 101 30 101 15 101L0 101Z" fill="#001958" stroke-linecap="round" stroke-linejoin="miter"></path></svg>