<svg id="visual" viewBox="0 0 900 100" width="900" height="100" xmlns="http://www.w3.org/2000/svg" xmlns:xlink="http://www.w3.org/1999/xlink" version="1.1"><rect x="0" y="0" width="900" height="100" fill="#1f0d3a"></rect><path d="M0 72L15 70.3C30 68.7 60 65.3 90 64.2C120 63 150 64 180 62.8C210 61.7 240 58.3 270 53.8C300 49.3 330 43.7 360 42C390 40.3 420 42.7 450 46.2C480 49.7 510 54.3 540 57.5C570 60.7 600 62.3 630 62C660 61.7 690 59.3 720 58.7C750 58 780 59 810 56.3C840 53.7 870 47.3 885 44.2L900 41L900 101L885 101C870 101 840 101 810 101C780 101 750 101 720 101C690 101 660 101 630 101C600 101 570 101 540 101C510 101 480 101 450 101C420 101 390 101 360 101C330 101 300 101 270 101C240 101 210 101 180 101C150 101 120 101 90 101C60 101 30 101 15 101L0 101Z" fill="#181247" stroke-linecap="round" stroke-linejoin="miter"></path></svg>