<svg id="visual" viewBox="0 0 900 100" width="900" height="100" xmlns="http://www.w3.org/2000/svg" xmlns:xlink="http://www.w3.org/1999/xlink" version="1.1"><rect x="0" y="0" width="900" height="100" fill="#3d001c"></rect><path d="M0 71L15 66.2C30 61.3 60 51.7 90 49C120 46.3 150 50.7 180 54.5C210 58.3 240 61.7 270 62C300 62.3 330 59.7 360 56C390 52.3 420 47.7 450 49C480 50.3 510 57.7 540 58.5C570 59.3 600 53.7 630 49.5C660 45.3 690 42.7 720 41.8C750 41 780 42 810 41.7C840 41.3 870 39.7 885 38.8L900 38L900 101L885 101C870 101 840 101 810 101C780 101 750 101 720 101C690 101 660 101 630 101C600 101 570 101 540 101C510 101 480 101 450 101C420 101 390 101 360 101C330 101 300 101 270 101C240 101 210 101 180 101C150 101 120 101 90 101C60 101 30 101 15 101L0 101Z" fill="#1f0d3a" stroke-linecap="round" stroke-linejoin="miter"></path></svg>