<svg id="visual" viewBox="0 0 960 300" width="960" height="300" xmlns="http://www.w3.org/2000/svg" xmlns:xlink="http://www.w3.org/1999/xlink" version="1.1"><rect x="0" y="0" width="960" height="300" fill="#1b263b"></rect><path d="M0 206L22.8 214.3C45.7 222.7 91.3 239.3 137 239C182.7 238.7 228.3 221.3 274 213.5C319.7 205.7 365.3 207.3 411.2 209.8C457 212.3 503 215.7 548.8 214.5C594.7 213.3 640.3 207.7 686 202.3C731.7 197 777.3 192 823 189.5C868.7 187 914.3 187 937.2 187L960 187L960 301L937.2 301C914.3 301 868.7 301 823 301C777.3 301 731.7 301 686 301C640.3 301 594.7 301 548.8 301C503 301 457 301 411.2 301C365.3 301 319.7 301 274 301C228.3 301 182.7 301 137 301C91.3 301 45.7 301 22.8 301L0 301Z" fill="#415a77" stroke-linecap="round" stroke-linejoin="miter"></path></svg>