<svg id="visual" viewBox="0 0 900 100" width="900" height="100" xmlns="http://www.w3.org/2000/svg" xmlns:xlink="http://www.w3.org/1999/xlink" version="1.1"><rect x="0" y="0" width="900" height="100" fill="#000830"></rect><path d="M0 33L21.5 37.7C43 42.3 86 51.7 128.8 55.7C171.7 59.7 214.3 58.3 257.2 56.3C300 54.3 343 51.7 385.8 48.2C428.7 44.7 471.3 40.3 514.2 41.8C557 43.3 600 50.7 642.8 49.5C685.7 48.3 728.3 38.7 771.2 40.2C814 41.7 857 54.3 878.5 60.7L900 67L900 101L878.5 101C857 101 814 101 771.2 101C728.3 101 685.7 101 642.8 101C600 101 557 101 514.2 101C471.3 101 428.7 101 385.8 101C343 101 300 101 257.2 101C214.3 101 171.7 101 128.8 101C86 101 43 101 21.5 101L0 101Z" fill="#1f0426" stroke-linecap="round" stroke-linejoin="miter"></path></svg>