<svg id="visual" viewBox="0 0 900 100" width="900" height="100" xmlns="http://www.w3.org/2000/svg" xmlns:xlink="http://www.w3.org/1999/xlink" version="1.1"><rect x="0" y="0" width="900" height="100" fill="#1f0426"></rect><path d="M0 41L15 44.8C30 48.7 60 56.3 90 57.5C120 58.7 150 53.3 180 49.7C210 46 240 44 270 45C300 46 330 50 360 53.3C390 56.7 420 59.3 450 59.5C480 59.7 510 57.3 540 54.3C570 51.3 600 47.7 630 45.7C660 43.7 690 43.3 720 45.5C750 47.7 780 52.3 810 54.5C840 56.7 870 56.3 885 56.2L900 56L900 101L885 101C870 101 840 101 810 101C780 101 750 101 720 101C690 101 660 101 630 101C600 101 570 101 540 101C510 101 480 101 450 101C420 101 390 101 360 101C330 101 300 101 270 101C240 101 210 101 180 101C150 101 120 101 90 101C60 101 30 101 15 101L0 101Z" fill="#3d001c" stroke-linecap="round" stroke-linejoin="miter"></path></svg>